<svg width="241" height="50" viewBox="0 0 241 50" fill="none" xmlns="http://www.w3.org/2000/svg">
<g id="header__logo">
<g id="Humpback">
<path d="M109.74 31.1296V14.9259H113.624V31.1296H109.74ZM98.5452 31.1296V14.9259H102.429V31.1296H98.5452ZM100.053 24.8565L100.076 21.338H111.796V24.8565H100.053Z" fill="white"/>
<path d="M122.633 31.3843C121.659 31.3843 120.813 31.1682 120.097 30.7361C119.397 30.304 118.856 29.679 118.475 28.8611C118.095 28.0278 117.904 27.0324 117.904 25.875V18.838H121.56V25.2731C121.56 25.9059 121.643 26.4383 121.811 26.8704C121.994 27.3025 122.275 27.6343 122.656 27.8657C123.037 28.0818 123.502 28.1898 124.05 28.1898C124.446 28.1898 124.811 28.1281 125.147 28.0046C125.482 27.8657 125.779 27.6806 126.038 27.4491C126.296 27.2022 126.494 26.9244 126.632 26.6157C126.784 26.2917 126.86 25.929 126.86 25.5278V18.838H130.515V31.1296H127.088L126.929 28.6065L127.591 28.3287C127.424 28.8688 127.104 29.3704 126.632 29.8333C126.159 30.2963 125.581 30.6744 124.895 30.9676C124.225 31.2454 123.471 31.3843 122.633 31.3843Z" fill="white"/>
<path d="M134.97 31.1296V18.838H138.443L138.557 21.4306L137.895 21.2685C138.093 20.8981 138.352 20.5509 138.672 20.2269C139.007 19.9028 139.38 19.625 139.791 19.3935C140.217 19.1466 140.674 18.9537 141.162 18.8148C141.649 18.6759 142.175 18.6065 142.738 18.6065C143.393 18.6065 143.995 18.7068 144.543 18.9074C145.107 19.108 145.586 19.4398 145.982 19.9028C146.378 20.3503 146.683 20.9522 146.896 21.7083L146.142 21.6157L146.325 21.2454C146.569 20.8904 146.858 20.5586 147.193 20.25C147.544 19.9259 147.94 19.6481 148.381 19.4167C148.823 19.1698 149.295 18.9769 149.798 18.838C150.3 18.6836 150.818 18.6065 151.351 18.6065C152.463 18.6065 153.37 18.8225 154.07 19.2546C154.771 19.6713 155.289 20.2654 155.624 21.037C155.959 21.8086 156.126 22.7037 156.126 23.7222V31.1296H152.448V24.1157C152.448 23.6219 152.372 23.1975 152.22 22.8426C152.067 22.4877 151.831 22.2176 151.511 22.0324C151.207 21.8318 150.811 21.7315 150.323 21.7315C149.897 21.7315 149.501 21.8009 149.135 21.9398C148.785 22.0787 148.473 22.2716 148.199 22.5185C147.94 22.75 147.734 23.0278 147.582 23.3518C147.445 23.6605 147.376 24 147.376 24.3704V31.1296H143.698V24.0926C143.698 23.6142 143.614 23.1975 143.446 22.8426C143.279 22.4877 143.02 22.2176 142.67 22.0324C142.319 21.8318 141.885 21.7315 141.367 21.7315C140.956 21.7315 140.583 21.8086 140.248 21.963C139.928 22.1018 139.646 22.2948 139.403 22.5417C139.159 22.7731 138.969 23.0278 138.831 23.3056C138.71 23.5833 138.649 23.8688 138.649 24.162V31.1296H134.97Z" fill="white"/>
<path d="M160.514 36.2222V18.838H163.987L164.124 21.5926L163.439 21.3843C163.545 20.8904 163.835 20.4352 164.307 20.0185C164.779 19.6018 165.373 19.2623 166.089 19C166.82 18.7377 167.597 18.6065 168.419 18.6065C169.607 18.6065 170.651 18.8843 171.549 19.4398C172.448 19.9799 173.148 20.7284 173.651 21.6852C174.169 22.6265 174.428 23.7222 174.428 24.9722C174.428 26.2068 174.169 27.3025 173.651 28.2593C173.148 29.216 172.44 29.9722 171.526 30.5278C170.613 31.0679 169.562 31.338 168.374 31.338C167.551 31.338 166.782 31.1991 166.066 30.9213C165.35 30.6435 164.749 30.2809 164.261 29.8333C163.789 29.3858 163.484 28.9151 163.347 28.4213L164.193 28.0972V36.2222H160.514ZM167.483 28.213C168.168 28.213 168.762 28.0818 169.265 27.8194C169.767 27.5417 170.156 27.1636 170.43 26.6852C170.719 26.2068 170.864 25.6358 170.864 24.9722C170.864 24.3241 170.719 23.7608 170.43 23.2824C170.156 22.7886 169.767 22.4105 169.265 22.1481C168.777 21.8704 168.183 21.7315 167.483 21.7315C166.797 21.7315 166.195 21.8627 165.678 22.125C165.175 22.3873 164.779 22.7654 164.49 23.2593C164.215 23.7531 164.078 24.3241 164.078 24.9722C164.078 25.6358 164.215 26.2068 164.49 26.6852C164.779 27.1636 165.175 27.5417 165.678 27.8194C166.195 28.0818 166.797 28.213 167.483 28.213Z" fill="white"/>
<path d="M185.568 31.3843C184.913 31.3843 184.296 31.2994 183.718 31.1296C183.139 30.9599 182.621 30.7361 182.164 30.4583C181.707 30.1806 181.326 29.8642 181.022 29.5093C180.732 29.1389 180.542 28.7839 180.451 28.4444L181.433 28.2593L181.227 31.1065H177.823V14H181.502V21.7778L180.565 21.5926C180.672 21.2068 180.87 20.8364 181.159 20.4815C181.448 20.1265 181.814 19.8102 182.256 19.5324C182.712 19.2392 183.223 19.0077 183.786 18.838C184.35 18.6682 184.944 18.5833 185.568 18.5833C186.726 18.5833 187.762 18.8611 188.675 19.4167C189.589 19.9568 190.313 20.713 190.846 21.6852C191.379 22.642 191.645 23.7377 191.645 24.9722C191.645 26.2222 191.379 27.3333 190.846 28.3056C190.328 29.2623 189.612 30.0185 188.698 30.5741C187.784 31.1142 186.741 31.3843 185.568 31.3843ZM184.7 28.2361C185.386 28.2361 185.972 28.0972 186.459 27.8194C186.962 27.5417 187.35 27.1636 187.624 26.6852C187.914 26.1914 188.059 25.6204 188.059 24.9722C188.059 24.3241 187.921 23.7531 187.647 23.2593C187.373 22.7654 186.977 22.3873 186.459 22.125C185.957 21.8627 185.37 21.7315 184.7 21.7315C183.999 21.7315 183.398 21.8627 182.895 22.125C182.393 22.3873 181.997 22.7654 181.707 23.2593C181.433 23.7531 181.296 24.3241 181.296 24.9722C181.296 25.6204 181.433 26.1914 181.707 26.6852C181.997 27.1636 182.393 27.5417 182.895 27.8194C183.398 28.0972 183.999 28.2361 184.7 28.2361Z" fill="white"/>
<path d="M199.681 31.338C198.478 31.338 197.427 31.0679 196.529 30.5278C195.63 29.9876 194.922 29.2392 194.404 28.2824C193.901 27.3102 193.65 26.2068 193.65 24.9722C193.65 23.7222 193.909 22.6188 194.427 21.662C194.945 20.7052 195.66 19.9568 196.574 19.4167C197.503 18.8611 198.57 18.5833 199.773 18.5833C200.458 18.5833 201.09 18.6759 201.669 18.8611C202.248 19.0309 202.75 19.2701 203.177 19.5787C203.619 19.8873 203.977 20.2268 204.251 20.5972C204.54 20.9676 204.731 21.3534 204.822 21.7546H204.022V18.838H207.632V31.1296H203.954V27.9815L204.731 28.0972C204.639 28.4985 204.449 28.892 204.159 29.2778C203.87 29.6636 203.497 30.0108 203.04 30.3194C202.583 30.6281 202.065 30.875 201.486 31.0602C200.923 31.2454 200.321 31.338 199.681 31.338ZM200.664 28.213C201.349 28.213 201.943 28.0818 202.446 27.8194C202.964 27.5571 203.36 27.1867 203.634 26.7083C203.923 26.2145 204.068 25.6358 204.068 24.9722C204.068 24.3241 203.923 23.7608 203.634 23.2824C203.36 22.7886 202.964 22.4028 202.446 22.125C201.943 21.8472 201.349 21.7083 200.664 21.7083C199.978 21.7083 199.384 21.8472 198.882 22.125C198.379 22.4028 197.983 22.7886 197.694 23.2824C197.42 23.7608 197.283 24.3241 197.283 24.9722C197.283 25.6358 197.42 26.2145 197.694 26.7083C197.983 27.1867 198.379 27.5571 198.882 27.8194C199.384 28.0818 199.978 28.213 200.664 28.213Z" fill="white"/>
<path d="M217.818 31.3611C216.477 31.3611 215.289 31.0833 214.254 30.5278C213.218 29.9722 212.403 29.216 211.809 28.2593C211.215 27.287 210.918 26.1914 210.918 24.9722C210.918 23.7531 211.215 22.6651 211.809 21.7083C212.403 20.7361 213.21 19.9722 214.231 19.4167C215.251 18.8611 216.409 18.5833 217.703 18.5833C218.937 18.5833 220.064 18.7762 221.085 19.162C222.105 19.5324 222.935 20.0571 223.575 20.7361L221.587 23.2824C221.313 23.0201 220.986 22.7731 220.605 22.5417C220.224 22.3102 219.813 22.1327 219.371 22.0093C218.945 21.8704 218.503 21.8009 218.046 21.8009C217.346 21.8009 216.729 21.9398 216.196 22.2176C215.678 22.4799 215.274 22.8503 214.985 23.3287C214.711 23.8071 214.573 24.3549 214.573 24.9722C214.573 25.5586 214.718 26.091 215.008 26.5694C215.297 27.0478 215.701 27.4259 216.218 27.7037C216.736 27.9815 217.338 28.1204 218.023 28.1204C218.572 28.1204 219.059 28.0664 219.486 27.9583C219.912 27.8503 220.3 27.7037 220.651 27.5185C221.016 27.3179 221.328 27.0941 221.587 26.8472L223.575 29.3704C222.89 29.9568 222.052 30.4352 221.062 30.8056C220.072 31.1759 218.991 31.3611 217.818 31.3611Z" fill="white"/>
<path d="M230.007 27.7963L228.819 25.0185L235.559 18.838H240.426L230.007 27.7963ZM226.649 31.1296V14H230.213V31.1296H226.649ZM235.97 31.1296L231.013 24.9722L233.549 22.9352L240.288 31.1296H235.97Z" fill="white"/>
</g>
<path id="Intersect" fill-rule="evenodd" clip-rule="evenodd" d="M88.5452 1.6195C87.9012 6.70566 85.9854 10.7853 83.4939 14.0699C79.8115 18.926 74.8434 22.1407 70.809 24.309C66.9234 26.398 63.3446 28.7306 60.6073 32.7971C58.3731 36.1203 56.7757 41.8915 56.1573 48.3772C52.3834 49.4349 48.4076 50 44.3016 50C40.1265 50 36.0862 49.4157 32.2558 48.3235C31.6335 41.8597 30.0371 36.1111 27.8091 32.7971C25.0737 28.7306 21.4949 26.398 17.6074 24.309C13.573 22.1407 8.60487 18.926 4.92255 14.0699C2.57971 10.9814 0.745987 7.18861 0 2.51909C0.0439192 1.71488 0.108699 0.916301 0.193802 0.123908C5.71585 4.02349 12.3363 4.304 19.0099 4.58451L19.012 4.5846C27.8613 4.95855 36.8195 5.3371 41.9943 16.1684L44.2082 20.8034L46.4221 16.1684C51.5973 5.33624 60.5584 4.9566 69.4065 4.58451C76.1483 4.30106 82.8375 4.0176 88.3959 0C88.4551 0.537031 88.5049 1.07692 88.5452 1.6195Z" fill="#193D78"/>
</g>
</svg>
